<mxfile host="app.diagrams.net" modified="2024-05-30T09:05:34.202Z" agent="Mozilla/5.0 (Macintosh; Intel Mac OS X 10_15_7) AppleWebKit/605.1.15 (KHTML, like Gecko) Version/16.6 Safari/605.1.15" etag="C39cV1RHz9M_zrHEJ7N8" version="24.4.9" type="github">
  <diagram name="Seite-1" id="zDdVwDyc1Fwn5zu0NveK">
    <mxGraphModel dx="1224" dy="816" grid="1" gridSize="10" guides="1" tooltips="1" connect="1" arrows="1" fold="1" page="1" pageScale="1" pageWidth="827" pageHeight="1169" math="0" shadow="0">
      <root>
        <mxCell id="0" />
        <mxCell id="1" parent="0" />
        <mxCell id="O20LecAtxoyKpuHzmxib-36" value="" style="html=1;shadow=0;dashed=0;align=center;verticalAlign=middle;shape=mxgraph.arrows2.arrow;dy=0;dx=30;notch=30;fontFamily=Lucida Console;fontSize=14;fillColor=#f5f5f5;fontColor=#333333;strokeColor=#666666;" vertex="1" parent="1">
          <mxGeometry x="460" y="200" width="133" height="100" as="geometry" />
        </mxCell>
        <mxCell id="O20LecAtxoyKpuHzmxib-35" value="" style="html=1;shadow=0;dashed=0;align=center;verticalAlign=middle;shape=mxgraph.arrows2.arrow;dy=0;dx=30;notch=30;fontFamily=Lucida Console;fontSize=14;fillColor=#f5f5f5;fontColor=#333333;strokeColor=#666666;" vertex="1" parent="1">
          <mxGeometry x="460" y="90" width="133" height="100" as="geometry" />
        </mxCell>
        <mxCell id="O20LecAtxoyKpuHzmxib-34" value="" style="html=1;shadow=0;dashed=0;align=center;verticalAlign=middle;shape=mxgraph.arrows2.arrow;dy=0;dx=30;notch=30;fontFamily=Lucida Console;fontSize=14;fillColor=#f5f5f5;fontColor=#333333;strokeColor=#666666;" vertex="1" parent="1">
          <mxGeometry x="347" y="90" width="133" height="100" as="geometry" />
        </mxCell>
        <mxCell id="O20LecAtxoyKpuHzmxib-33" value="" style="html=1;shadow=0;dashed=0;align=center;verticalAlign=middle;shape=mxgraph.arrows2.arrow;dy=0;dx=30;notch=30;fontFamily=Lucida Console;fontSize=14;fillColor=#f5f5f5;fontColor=#333333;strokeColor=#666666;" vertex="1" parent="1">
          <mxGeometry x="234.88" y="90" width="133" height="100" as="geometry" />
        </mxCell>
        <mxCell id="O20LecAtxoyKpuHzmxib-32" value="" style="html=1;shadow=0;dashed=0;align=center;verticalAlign=middle;shape=mxgraph.arrows2.arrow;dy=0;dx=30;notch=30;fontFamily=Lucida Console;fontSize=14;fillColor=#f5f5f5;fontColor=#333333;strokeColor=#666666;" vertex="1" parent="1">
          <mxGeometry x="120" y="90" width="133" height="100" as="geometry" />
        </mxCell>
        <mxCell id="O20LecAtxoyKpuHzmxib-6" value="" style="html=1;shadow=0;dashed=0;align=center;verticalAlign=middle;shape=mxgraph.arrows2.arrow;dy=0;dx=30;notch=30;fontFamily=Lucida Console;fontSize=14;fillColor=#f5f5f5;fontColor=#333333;strokeColor=#666666;" vertex="1" parent="1">
          <mxGeometry x="7" y="90" width="133" height="100" as="geometry" />
        </mxCell>
        <mxCell id="O20LecAtxoyKpuHzmxib-9" value="" style="outlineConnect=0;dashed=0;verticalLabelPosition=bottom;verticalAlign=top;align=center;html=1;shape=mxgraph.aws3.documents;fillColor=#647687;fontColor=#ffffff;strokeColor=#314354;fontFamily=Lucida Console;fontSize=14;" vertex="1" parent="1">
          <mxGeometry x="48.5" y="131.5" width="50" height="53" as="geometry" />
        </mxCell>
        <mxCell id="O20LecAtxoyKpuHzmxib-10" value="PDF&amp;nbsp;" style="text;html=1;align=center;verticalAlign=middle;resizable=0;points=[];autosize=1;strokeColor=none;fillColor=none;fontFamily=Lucida Console;fontSize=14;" vertex="1" parent="1">
          <mxGeometry x="48.5" y="95.5" width="50" height="30" as="geometry" />
        </mxCell>
        <mxCell id="O20LecAtxoyKpuHzmxib-11" value="" style="outlineConnect=0;dashed=0;verticalLabelPosition=bottom;verticalAlign=top;align=center;html=1;shape=mxgraph.aws3.filtering_rule;fillColor=#647687;fontColor=#ffffff;strokeColor=#314354;fontFamily=Lucida Console;fontSize=14;" vertex="1" parent="1">
          <mxGeometry x="275.51" y="130" width="51.75" height="56" as="geometry" />
        </mxCell>
        <mxCell id="O20LecAtxoyKpuHzmxib-15" value="" style="shape=mxgraph.signs.tech.camera_2;html=1;pointerEvents=1;fillColor=#647687;strokeColor=none;verticalLabelPosition=bottom;verticalAlign=top;align=center;sketch=0;fontColor=#ffffff;fontFamily=Lucida Console;fontSize=14;" vertex="1" parent="1">
          <mxGeometry x="156.94" y="135.75" width="59.12" height="44.5" as="geometry" />
        </mxCell>
        <mxCell id="O20LecAtxoyKpuHzmxib-17" value="Images" style="text;html=1;align=center;verticalAlign=middle;resizable=0;points=[];autosize=1;strokeColor=none;fillColor=none;fontFamily=Lucida Console;fontSize=14;" vertex="1" parent="1">
          <mxGeometry x="156.94" y="97" width="60" height="30" as="geometry" />
        </mxCell>
        <mxCell id="O20LecAtxoyKpuHzmxib-16" value="" style="outlineConnect=0;dashed=0;verticalLabelPosition=bottom;verticalAlign=top;align=center;html=1;shape=mxgraph.aws3.automation;fillColor=#647687;fontColor=#ffffff;strokeColor=#314354;fontFamily=Lucida Console;fontSize=14;" vertex="1" parent="1">
          <mxGeometry x="387" y="130.5" width="54" height="53" as="geometry" />
        </mxCell>
        <mxCell id="O20LecAtxoyKpuHzmxib-18" value="Base-64" style="text;html=1;align=center;verticalAlign=middle;resizable=0;points=[];autosize=1;strokeColor=none;fillColor=none;fontFamily=Lucida Console;fontSize=14;" vertex="1" parent="1">
          <mxGeometry x="379" y="95.5" width="70" height="30" as="geometry" />
        </mxCell>
        <mxCell id="O20LecAtxoyKpuHzmxib-20" value="Data cleaning" style="text;html=1;align=center;verticalAlign=middle;resizable=0;points=[];autosize=1;strokeColor=none;fillColor=none;fontFamily=Lucida Console;fontSize=14;" vertex="1" parent="1">
          <mxGeometry x="251.38" y="95.5" width="100" height="30" as="geometry" />
        </mxCell>
        <mxCell id="O20LecAtxoyKpuHzmxib-22" value="Image prompt" style="text;html=1;align=center;verticalAlign=middle;resizable=0;points=[];autosize=1;strokeColor=none;fillColor=none;fontFamily=Lucida Console;fontSize=14;" vertex="1" parent="1">
          <mxGeometry x="476.5" y="97" width="100" height="30" as="geometry" />
        </mxCell>
        <mxCell id="O20LecAtxoyKpuHzmxib-24" value="Text prompt" style="text;html=1;align=center;verticalAlign=middle;resizable=0;points=[];autosize=1;strokeColor=none;fillColor=none;fontFamily=Lucida Console;fontSize=14;" vertex="1" parent="1">
          <mxGeometry x="481.5" y="205" width="90" height="30" as="geometry" />
        </mxCell>
        <mxCell id="O20LecAtxoyKpuHzmxib-25" value="" style="outlineConnect=0;dashed=0;verticalLabelPosition=bottom;verticalAlign=top;align=center;html=1;shape=mxgraph.aws3.assignment_task;fillColor=#647687;fontColor=#ffffff;strokeColor=#314354;fontFamily=Lucida Console;fontSize=14;" vertex="1" parent="1">
          <mxGeometry x="512.5" y="132" width="40" height="50" as="geometry" />
        </mxCell>
        <mxCell id="O20LecAtxoyKpuHzmxib-27" value="" style="outlineConnect=0;dashed=0;verticalLabelPosition=bottom;verticalAlign=top;align=center;html=1;shape=mxgraph.aws3.requester;fillColor=#647687;fontColor=#ffffff;strokeColor=#314354;fontFamily=Lucida Console;fontSize=14;" vertex="1" parent="1">
          <mxGeometry x="506.5" y="235" width="40" height="50" as="geometry" />
        </mxCell>
        <mxCell id="O20LecAtxoyKpuHzmxib-28" value="" style="html=1;shadow=0;dashed=0;align=center;verticalAlign=middle;shape=mxgraph.arrows2.arrow;dy=0;dx=30;notch=0;fontFamily=Lucida Console;fontSize=14;fillColor=#bac8d3;strokeColor=#23445d;" vertex="1" parent="1">
          <mxGeometry x="677" y="90" width="150" height="210" as="geometry" />
        </mxCell>
        <mxCell id="O20LecAtxoyKpuHzmxib-30" value="VLM" style="text;html=1;align=center;verticalAlign=middle;resizable=0;points=[];autosize=1;strokeColor=none;fillColor=none;fontFamily=Lucida Console;fontSize=14;" vertex="1" parent="1">
          <mxGeometry x="720" y="142.5" width="50" height="30" as="geometry" />
        </mxCell>
        <mxCell id="O20LecAtxoyKpuHzmxib-31" value="" style="outlineConnect=0;dashed=0;verticalLabelPosition=bottom;verticalAlign=top;align=center;html=1;shape=mxgraph.aws3.ec2;fillColor=#647687;fontColor=#ffffff;strokeColor=#314354;fontFamily=Lucida Console;fontSize=14;" vertex="1" parent="1">
          <mxGeometry x="706.75" y="176.5" width="76.5" height="93" as="geometry" />
        </mxCell>
        <mxCell id="O20LecAtxoyKpuHzmxib-37" value="" style="html=1;shadow=0;dashed=0;align=center;verticalAlign=middle;shape=mxgraph.arrows2.arrow;dy=0;dx=0;notch=30;fontFamily=Lucida Console;fontSize=14;fillColor=#bac8d3;strokeColor=#23445d;" vertex="1" parent="1">
          <mxGeometry x="571.5" y="90" width="98.5" height="100" as="geometry" />
        </mxCell>
        <mxCell id="O20LecAtxoyKpuHzmxib-38" value="" style="html=1;shadow=0;dashed=0;align=center;verticalAlign=middle;shape=mxgraph.arrows2.arrow;dy=0;dx=0;notch=30;fontFamily=Lucida Console;fontSize=14;fillColor=#bac8d3;strokeColor=#23445d;" vertex="1" parent="1">
          <mxGeometry x="573.75" y="200" width="96.25" height="100" as="geometry" />
        </mxCell>
        <mxCell id="O20LecAtxoyKpuHzmxib-39" value="Image&lt;div&gt;Encoder&lt;/div&gt;" style="text;html=1;align=center;verticalAlign=middle;resizable=0;points=[];autosize=1;strokeColor=none;fillColor=none;fontFamily=Lucida Console;fontSize=14;" vertex="1" parent="1">
          <mxGeometry x="600" y="87" width="70" height="50" as="geometry" />
        </mxCell>
        <mxCell id="O20LecAtxoyKpuHzmxib-40" value="Text&lt;div&gt;Encoder&lt;/div&gt;" style="text;html=1;align=center;verticalAlign=middle;resizable=0;points=[];autosize=1;strokeColor=none;fillColor=none;fontFamily=Lucida Console;fontSize=14;" vertex="1" parent="1">
          <mxGeometry x="593" y="200" width="70" height="50" as="geometry" />
        </mxCell>
        <mxCell id="O20LecAtxoyKpuHzmxib-41" value="" style="outlineConnect=0;dashed=0;verticalLabelPosition=bottom;verticalAlign=top;align=center;html=1;shape=mxgraph.aws3.instances_2;fillColor=#647687;fontColor=#ffffff;strokeColor=#314354;" vertex="1" parent="1">
          <mxGeometry x="610" y="133" width="50" height="50" as="geometry" />
        </mxCell>
        <mxCell id="O20LecAtxoyKpuHzmxib-43" value="" style="outlineConnect=0;dashed=0;verticalLabelPosition=bottom;verticalAlign=top;align=center;html=1;shape=mxgraph.aws3.search_documents;fillColor=#647687;fontColor=#ffffff;strokeColor=#314354;" vertex="1" parent="1">
          <mxGeometry x="610" y="245" width="40" height="40" as="geometry" />
        </mxCell>
        <mxCell id="O20LecAtxoyKpuHzmxib-44" value="" style="shape=crossbar;whiteSpace=wrap;html=1;rounded=1;strokeWidth=2;fillColor=#647687;strokeColor=#000000;fontColor=#ffffff;" vertex="1" parent="1">
          <mxGeometry x="7" y="67" width="553" height="20" as="geometry" />
        </mxCell>
        <mxCell id="O20LecAtxoyKpuHzmxib-46" value="Preprocessing" style="text;html=1;align=center;verticalAlign=middle;resizable=0;points=[];autosize=1;strokeColor=none;fillColor=none;fontFamily=Lucida Console;fontSize=14;" vertex="1" parent="1">
          <mxGeometry x="240" y="50" width="100" height="30" as="geometry" />
        </mxCell>
        <mxCell id="O20LecAtxoyKpuHzmxib-47" value="" style="shape=crossbar;whiteSpace=wrap;html=1;rounded=1;strokeWidth=2;fillColor=#647687;strokeColor=#000000;fontColor=#ffffff;" vertex="1" parent="1">
          <mxGeometry x="571.5" y="67" width="228.5" height="20" as="geometry" />
        </mxCell>
        <mxCell id="O20LecAtxoyKpuHzmxib-48" value="VLM model call" style="text;html=1;align=center;verticalAlign=middle;resizable=0;points=[];autosize=1;strokeColor=none;fillColor=none;fontFamily=Lucida Console;fontSize=14;" vertex="1" parent="1">
          <mxGeometry x="625.75" y="50" width="120" height="30" as="geometry" />
        </mxCell>
      </root>
    </mxGraphModel>
  </diagram>
</mxfile>
